<svg width="92" height="92" viewBox="0 0 92 92" fill="none" xmlns="http://www.w3.org/2000/svg">
<path d="M79.1967 60.5474C79.3535 60.5455 79.508 60.5086 79.6488 60.4394C79.7896 60.3702 79.9132 60.2704 80.0105 60.1474C80.1078 60.0243 80.1765 59.8811 80.2114 59.7281C80.2464 59.5752 80.2467 59.4164 80.2125 59.2633L75.6317 40.0966C74.982 37.3588 73.9496 34.7262 72.565 32.2766C74.29 16.4066 70.2075 4.88744 65.8758 4.13994C62.0425 3.50744 54.7975 13.5508 52.1908 17.3649C48.1029 16.4961 43.8779 16.4961 39.79 17.3649C37.1833 13.5316 29.8617 3.50744 26.1242 4.13994C21.7925 4.88744 17.6908 16.4066 19.4158 32.2766C18.0374 34.727 17.0115 37.3596 16.3683 40.0966L11.7875 59.2633C11.7533 59.4164 11.7536 59.5752 11.7886 59.7281C11.8235 59.8811 11.8922 60.0243 11.9895 60.1474C12.0868 60.2704 12.2104 60.3702 12.3512 60.4394C12.492 60.5086 12.6465 60.5455 12.8033 60.5474H16.8667C17.0252 60.5465 17.1818 60.5813 17.325 60.6493C17.4682 60.7173 17.5942 60.8167 17.6937 60.9401C17.7931 61.0635 17.8635 61.2077 17.8995 61.3621C17.9355 61.5164 17.9363 61.6769 17.9017 61.8316L17.1158 65.1666C17.0766 65.3436 17.0837 65.5276 17.1364 65.701C17.1891 65.8744 17.2856 66.0313 17.4167 66.1566C17.5477 66.2818 17.7088 66.3711 17.8844 66.416C18.06 66.4608 18.2442 66.4596 18.4192 66.4124L24.5333 64.7066C25.4616 64.431 26.4599 64.5169 27.3274 64.9471C28.195 65.3774 28.8675 66.12 29.21 67.0258C32.7942 76.0341 37.3175 81.5349 46 81.5349C54.6825 81.5349 59.1867 76.0341 62.79 67.0258C63.1323 66.1243 63.8018 65.3848 64.665 64.955C65.5283 64.5252 66.5218 64.4365 67.4475 64.7066L73.5808 66.4124C73.7552 66.4614 73.9393 66.4637 74.1149 66.4192C74.2904 66.3747 74.4512 66.2849 74.5812 66.1588C74.7111 66.0327 74.8058 65.8747 74.8556 65.7006C74.9054 65.5265 74.9086 65.3424 74.865 65.1666L74.0983 61.9083C74.0641 61.7552 74.0645 61.5963 74.0994 61.4434C74.1343 61.2905 74.203 61.1472 74.3003 61.0242C74.3977 60.9011 74.5212 60.8014 74.662 60.7322C74.8028 60.6629 74.9573 60.626 75.1142 60.6241L79.1967 60.5474Z" fill="#FFAA54"/>
<path d="M26.1242 10.7908C29.3442 10.2349 35.19 17.5758 38.4292 22.0608C38.8336 22.6268 39.3843 23.0721 40.0225 23.3489C40.6606 23.6258 41.3621 23.7238 42.0517 23.6325C43.3599 23.4488 44.679 23.3528 46 23.345C47.321 23.3542 48.6399 23.4502 49.9483 23.6325C50.6349 23.7202 51.3324 23.6204 51.9668 23.3437C52.6012 23.067 53.1489 22.6237 53.5517 22.0608C56.81 17.5758 62.6558 10.2349 65.8758 10.7908C69.0958 11.3466 72.3158 18.1316 72.8333 28.3283C73.5617 14.49 69.7858 4.73412 65.8183 4.06328C61.8508 3.39245 54.7975 13.4166 52.1908 17.2499C48.1029 16.3811 43.8779 16.3811 39.79 17.2499C37.1833 13.4166 29.8617 3.39245 26.1242 4.02495C22.3867 4.65745 18.3808 14.49 19.1667 28.3283C19.665 18.1316 22.8275 11.3466 26.1242 10.7908Z" fill="#FFCC99"/>
<path d="M79.1967 60.5474C79.3535 60.5455 79.508 60.5086 79.6488 60.4394C79.7896 60.3702 79.9132 60.2704 80.0105 60.1474C80.1078 60.0243 80.1765 59.8811 80.2114 59.7281C80.2464 59.5752 80.2467 59.4164 80.2125 59.2633L75.6317 40.0966C74.982 37.3588 73.9496 34.7262 72.565 32.2766C74.29 16.4066 70.2075 4.88744 65.8758 4.13994C62.0425 3.50744 54.7975 13.5508 52.1908 17.3649C48.1029 16.4961 43.8779 16.4961 39.79 17.3649C37.1833 13.5316 29.8617 3.50744 26.1242 4.13994C21.7925 4.88744 17.6908 16.4066 19.4158 32.2766C18.0374 34.727 17.0115 37.3596 16.3683 40.0966L11.7875 59.2633C11.7533 59.4164 11.7536 59.5752 11.7886 59.7281C11.8235 59.8811 11.8922 60.0243 11.9895 60.1474C12.0868 60.2704 12.2104 60.3702 12.3512 60.4394C12.492 60.5086 12.6465 60.5455 12.8033 60.5474H16.8667C17.0252 60.5465 17.1818 60.5813 17.325 60.6493C17.4682 60.7173 17.5942 60.8167 17.6937 60.9401C17.7931 61.0635 17.8635 61.2077 17.8995 61.3621C17.9355 61.5164 17.9363 61.6769 17.9017 61.8316L17.1158 65.1666C17.0766 65.3436 17.0837 65.5276 17.1364 65.701C17.1891 65.8744 17.2856 66.0313 17.4167 66.1566C17.5477 66.2818 17.7088 66.3711 17.8844 66.416C18.06 66.4608 18.2442 66.4596 18.4192 66.4124L24.5333 64.7066C25.4616 64.431 26.4599 64.5169 27.3274 64.9471C28.195 65.3774 28.8675 66.12 29.21 67.0258C32.7942 76.0341 37.3175 81.5349 46 81.5349C54.6825 81.5349 59.1867 76.0341 62.79 67.0258C63.1323 66.1243 63.8018 65.3848 64.665 64.955C65.5283 64.5252 66.5218 64.4365 67.4475 64.7066L73.5808 66.4124C73.7552 66.4614 73.9393 66.4637 74.1149 66.4192C74.2904 66.3747 74.4512 66.2849 74.5812 66.1588C74.7111 66.0327 74.8058 65.8747 74.8556 65.7006C74.9054 65.5265 74.9086 65.3424 74.865 65.1666L74.0983 61.9083C74.0641 61.7552 74.0645 61.5963 74.0994 61.4434C74.1343 61.2905 74.203 61.1472 74.3003 61.0242C74.3977 60.9011 74.5212 60.8014 74.662 60.7322C74.8028 60.6629 74.9573 60.626 75.1142 60.6241L79.1967 60.5474Z" stroke="#45413C" stroke-width="1.1875" stroke-linecap="round" stroke-linejoin="round"/>
<path d="M44.0833 61.6209C44.0833 61.6209 34.5 53.13 23.92 50.6384C20.4756 49.639 16.7822 49.9615 13.5631 51.5427C10.344 53.1239 7.83117 55.8498 6.51667 59.1867C6.45497 59.3229 6.42668 59.4719 6.43416 59.6212C6.44163 59.7705 6.48465 59.9159 6.55964 60.0453C6.63463 60.1746 6.73942 60.2842 6.86529 60.3649C6.99117 60.4456 7.13449 60.4951 7.28334 60.5092C9.4495 60.6806 11.5731 61.205 13.57 62.0617C13.9587 62.2345 14.279 62.5316 14.4802 62.9064C14.6815 63.2812 14.7524 63.7122 14.6817 64.1317C14.2602 66.6699 14.2602 69.2602 14.6817 71.7984C14.7033 71.9475 14.7629 72.0886 14.8546 72.2081C14.9463 72.3277 15.0671 72.4218 15.2055 72.4814C15.3439 72.541 15.4953 72.5641 15.6452 72.5485C15.7951 72.533 15.9384 72.4793 16.0617 72.3925C18.8086 70.4658 21.8247 68.9545 25.0125 67.9075C25.8957 67.6247 26.8503 67.6617 27.7089 68.0122C28.5675 68.3626 29.2753 69.0041 29.7083 69.8242C32.2383 74.2517 37.9308 81.535 46 81.535C54.0692 81.535 59.7617 74.2517 62.2725 69.8242C62.709 69.0026 63.4203 68.3605 64.2822 68.0102C65.144 67.6598 66.1016 67.6235 66.9875 67.9075C70.1692 68.9549 73.1788 70.4662 75.9192 72.3925C76.044 72.4784 76.1886 72.5315 76.3394 72.5467C76.4902 72.5619 76.6424 72.5388 76.7819 72.4795C76.9214 72.4203 77.0437 72.3268 77.1374 72.2077C77.2312 72.0887 77.2934 71.9479 77.3183 71.7984C77.7513 69.2612 77.7513 66.6689 77.3183 64.1317C77.2477 63.7122 77.3185 63.2812 77.5198 62.9064C77.721 62.5316 78.0413 62.2345 78.43 62.0617C80.4278 61.2076 82.5509 60.6833 84.7167 60.5092C84.8654 60.4938 85.0084 60.4439 85.1343 60.3634C85.2603 60.2829 85.3657 60.174 85.442 60.0455C85.5184 59.917 85.5636 59.7724 85.5741 59.6233C85.5846 59.4742 85.5601 59.3246 85.5025 59.1867C84.1842 55.8484 81.6677 53.122 78.4455 51.541C75.2232 49.96 71.527 49.6382 68.08 50.6384C57.5 53.13 47.9167 61.6209 47.9167 61.6209H44.0833Z" fill="#F0F0F0"/>
<path d="M7.22589 60.5092L8.28005 60.6625C9.99095 58.252 12.4141 56.4379 15.209 55.4754C18.0039 54.5128 21.0301 54.45 23.8626 55.2959C34.5001 57.8067 44.0834 66.2975 44.0834 66.2975H47.9167C47.9167 66.2975 57.5001 57.8067 68.0801 55.2959C70.9125 54.45 73.9387 54.5128 76.7336 55.4754C79.5286 56.4379 81.9517 58.252 83.6626 60.6625L84.7167 60.5092C84.8654 60.4938 85.0085 60.4439 85.1344 60.3634C85.2604 60.2829 85.3657 60.174 85.4421 60.0455C85.5184 59.917 85.5637 59.7724 85.5742 59.6233C85.5847 59.4742 85.5602 59.3246 85.5026 59.1867C84.1842 55.8484 81.6678 53.122 78.4455 51.541C75.2233 49.96 71.5271 49.6382 68.0801 50.6384C57.5001 53.13 47.9167 61.6209 47.9167 61.6209H44.0834C44.0834 61.6209 34.5001 53.13 23.9201 50.6384C20.4756 49.639 16.7822 49.9615 13.5632 51.5427C10.3441 53.1239 7.83122 55.8498 6.51672 59.1867C6.45562 59.3188 6.42605 59.4632 6.43034 59.6087C6.43463 59.7541 6.47265 59.8966 6.54142 60.0248C6.61019 60.1531 6.70781 60.2636 6.8266 60.3477C6.94538 60.4317 7.08207 60.487 7.22589 60.5092V60.5092Z" fill="white"/>
<path d="M44.0833 61.6209C44.0833 61.6209 34.5 53.13 23.92 50.6384C20.4756 49.639 16.7822 49.9615 13.5631 51.5427C10.344 53.1239 7.83117 55.8498 6.51667 59.1867C6.45497 59.3229 6.42668 59.4719 6.43416 59.6212C6.44163 59.7705 6.48465 59.9159 6.55964 60.0453C6.63463 60.1746 6.73942 60.2842 6.86529 60.3649C6.99117 60.4456 7.13449 60.4951 7.28334 60.5092C9.4495 60.6806 11.5731 61.205 13.57 62.0617C13.9587 62.2345 14.279 62.5316 14.4802 62.9064C14.6815 63.2812 14.7524 63.7122 14.6817 64.1317C14.2602 66.6699 14.2602 69.2602 14.6817 71.7984C14.7033 71.9475 14.7629 72.0886 14.8546 72.2081C14.9463 72.3277 15.0671 72.4218 15.2055 72.4814C15.3439 72.541 15.4953 72.5641 15.6452 72.5485C15.7951 72.533 15.9384 72.4793 16.0617 72.3925C18.8086 70.4658 21.8247 68.9545 25.0125 67.9075C25.8957 67.6247 26.8503 67.6617 27.7089 68.0122C28.5675 68.3626 29.2753 69.0041 29.7083 69.8242C32.2383 74.2517 37.9308 81.535 46 81.535C54.0692 81.535 59.7617 74.2517 62.2725 69.8242C62.709 69.0026 63.4203 68.3605 64.2822 68.0102C65.144 67.6598 66.1016 67.6235 66.9875 67.9075C70.1692 68.9549 73.1788 70.4662 75.9192 72.3925C76.044 72.4784 76.1886 72.5315 76.3394 72.5467C76.4902 72.5619 76.6424 72.5388 76.7819 72.4795C76.9214 72.4203 77.0437 72.3268 77.1374 72.2077C77.2312 72.0887 77.2934 71.9479 77.3183 71.7984C77.7513 69.2612 77.7513 66.6689 77.3183 64.1317C77.2477 63.7122 77.3185 63.2812 77.5198 62.9064C77.721 62.5316 78.0413 62.2345 78.43 62.0617C80.4278 61.2076 82.5509 60.6833 84.7167 60.5092C84.8654 60.4938 85.0084 60.4439 85.1343 60.3634C85.2603 60.2829 85.3657 60.174 85.442 60.0455C85.5184 59.917 85.5636 59.7724 85.5741 59.6233C85.5846 59.4742 85.5601 59.3246 85.5025 59.1867C84.1842 55.8484 81.6677 53.122 78.4455 51.541C75.2232 49.96 71.527 49.6382 68.08 50.6384C57.5 53.13 47.9167 61.6209 47.9167 61.6209H44.0833Z" stroke="#45413C" stroke-width="1.1875" stroke-linecap="round" stroke-linejoin="round"/>
<path opacity="0.15" d="M23.9584 87.2083C23.9584 87.9707 26.2806 88.702 30.4142 89.2412C34.5478 89.7804 40.1542 90.0833 46 90.0833C51.8459 90.0833 57.4522 89.7804 61.5859 89.2412C65.7195 88.702 68.0417 87.9707 68.0417 87.2083C68.0417 86.4458 65.7195 85.7145 61.5859 85.1753C57.4522 84.6362 51.8459 84.3333 46 84.3333C40.1542 84.3333 34.5478 84.6362 30.4142 85.1753C26.2806 85.7145 23.9584 86.4458 23.9584 87.2083V87.2083Z" fill="#45413C"/>
<path d="M57.0975 45.9234C57.0975 46.6097 57.3701 47.2678 57.8554 47.7531C58.3406 48.2383 58.9988 48.5109 59.685 48.5109C60.3713 48.5109 61.0294 48.2383 61.5147 47.7531C61.9999 47.2678 62.2725 46.6097 62.2725 45.9234C62.2725 45.2372 61.9999 44.579 61.5147 44.0938C61.0294 43.6085 60.3713 43.3359 59.685 43.3359C58.9988 43.3359 58.3406 43.6085 57.8554 44.0938C57.3701 44.579 57.0975 45.2372 57.0975 45.9234V45.9234Z" fill="#45413C" stroke="#45413C" stroke-width="1.1875" stroke-linecap="round" stroke-linejoin="round"/>
<path d="M29.7084 45.9234C29.7084 46.6097 29.981 47.2678 30.4662 47.7531C30.9515 48.2383 31.6096 48.5109 32.2959 48.5109C32.9821 48.5109 33.6403 48.2383 34.1255 47.7531C34.6108 47.2678 34.8834 46.6097 34.8834 45.9234C34.8834 45.2372 34.6108 44.579 34.1255 44.0938C33.6403 43.6085 32.9821 43.3359 32.2959 43.3359C31.6096 43.3359 30.9515 43.6085 30.4662 44.0938C29.981 44.579 29.7084 45.2372 29.7084 45.9234Z" fill="#45413C" stroke="#45413C" stroke-width="1.1875" stroke-linecap="round" stroke-linejoin="round"/>
<path d="M70.9166 59.0524C70.9166 60.1066 69.6325 60.9691 68.0416 60.9691C66.4508 60.9691 65.1666 60.1066 65.1666 59.0524C65.1666 57.9982 66.4508 57.1357 68.0416 57.1357C69.6325 57.1357 70.9166 57.9982 70.9166 59.0524Z" fill="#FFCCDD"/>
<path d="M26.8334 59.0524C26.8334 60.1066 25.5492 60.9691 23.9584 60.9691C22.3675 60.9691 21.0834 60.1066 21.0834 59.0524C21.0834 57.9982 22.3675 57.1357 23.9584 57.1357C25.5492 57.1357 26.8334 57.9982 26.8334 59.0524Z" fill="#FFCCDD"/>
<path d="M38.3334 73.4275C38.7382 74.0648 39.3088 74.5799 39.9842 74.9176C40.6595 75.2552 41.414 75.4027 42.1667 75.3442C45.0417 75.3442 46 72.8333 46 67.6775" stroke="#45413C" stroke-width="1.1875" stroke-linecap="round" stroke-linejoin="round"/>
<path d="M53.6667 73.4275C53.2619 74.0648 52.6912 74.5799 52.0159 74.9176C51.3406 75.2552 50.5861 75.4027 49.8333 75.3442C46.9583 75.3442 46 72.8333 46 67.6775" stroke="#45413C" stroke-width="1.1875" stroke-linecap="round" stroke-linejoin="round"/>
<path d="M51.2133 63.6717C51.1188 65.0344 50.5423 66.3188 49.587 67.2952C48.6318 68.2715 47.3602 68.8758 46 69.0001C44.6548 68.879 43.3952 68.2883 42.442 67.3316C41.4888 66.3749 40.9027 65.1131 40.7866 63.7676C40.7866 61.6017 43.125 61.1609 46 61.1609C48.875 61.1609 51.2133 61.5059 51.2133 63.6717Z" fill="#656769"/>
<path d="M46 64.0549C48.185 64.0549 50.0441 64.3233 50.83 65.3774C51.0855 64.8445 51.2228 64.2626 51.2325 63.6716C51.2325 61.5058 48.8941 61.0649 46 61.0649C43.1058 61.0649 40.7866 61.5058 40.7866 63.6716C40.7982 64.2602 40.9286 64.8405 41.17 65.3774C41.9366 64.3233 43.815 64.0549 46 64.0549Z" fill="#87898C"/>
<path d="M51.2133 63.6717C51.1188 65.0344 50.5423 66.3188 49.587 67.2952C48.6318 68.2715 47.3602 68.8758 46 69.0001C44.6548 68.879 43.3952 68.2883 42.442 67.3316C41.4888 66.3749 40.9027 65.1131 40.7866 63.7676C40.7866 61.6017 43.125 61.1609 46 61.1609C48.875 61.1609 51.2133 61.5059 51.2133 63.6717Z" stroke="#45413C" stroke-width="1.1875" stroke-linecap="round" stroke-linejoin="round"/>
<path d="M34.3083 21.0832C34.432 21.0343 34.5438 20.9597 34.6365 20.8643C34.7291 20.7689 34.8004 20.6549 34.8457 20.5299C34.891 20.4049 34.9093 20.2717 34.8992 20.1391C34.8892 20.0065 34.8511 19.8775 34.7875 19.7607C33.4458 17.2499 29.9 11.1932 27.6575 11.1357C25.1275 11.1357 23.3833 20.5082 24.3417 27.8491C24.3715 28.0397 24.4582 28.2169 24.5905 28.3575C24.7227 28.498 24.8943 28.5954 25.0827 28.6368C25.2712 28.6782 25.4678 28.6618 25.6468 28.5896C25.8258 28.5175 25.9788 28.393 26.0858 28.2324C28.061 25.09 30.922 22.6025 34.3083 21.0832V21.0832Z" fill="#FFA694"/>
<path d="M27.6575 15.4292C29.3059 15.4292 31.6825 18.7833 33.4075 21.505C33.701 21.3503 34.0016 21.2096 34.3084 21.0833C34.432 21.0344 34.5439 20.9598 34.6365 20.8644C34.7291 20.769 34.8005 20.655 34.8458 20.53C34.8911 20.405 34.9093 20.2717 34.8993 20.1391C34.8892 20.0065 34.8511 19.8776 34.7875 19.7608C33.4459 17.25 29.9 11.1933 27.6575 11.1358C25.415 11.0783 23.8242 18.8025 24.1309 25.645C24.4375 20.2017 25.8559 15.3333 27.6575 15.4292Z" fill="#FF866E"/>
<path d="M34.3083 21.0832C34.432 21.0343 34.5438 20.9597 34.6365 20.8643C34.7291 20.7689 34.8004 20.6549 34.8457 20.5299C34.891 20.4049 34.9093 20.2717 34.8992 20.1391C34.8892 20.0065 34.8511 19.8775 34.7875 19.7607C33.4458 17.2499 29.9 11.1932 27.6575 11.1357C25.1275 11.1357 23.3833 20.5082 24.3417 27.8491C24.3715 28.0397 24.4582 28.2169 24.5905 28.3575C24.7227 28.498 24.8943 28.5954 25.0827 28.6368C25.2712 28.6782 25.4678 28.6618 25.6468 28.5896C25.8258 28.5175 25.9788 28.393 26.0858 28.2324C28.061 25.09 30.922 22.6025 34.3083 21.0832V21.0832Z" stroke="#45413C" stroke-width="1.1875" stroke-linecap="round" stroke-linejoin="round"/>
<path d="M57.6917 21.0833C57.5664 21.0363 57.4526 20.9631 57.3579 20.8685C57.2632 20.774 57.1898 20.6603 57.1426 20.535C57.0954 20.4098 57.0755 20.2759 57.0843 20.1424C57.093 20.0089 57.1302 19.8787 57.1934 19.7608C58.5351 17.3074 62.0809 11.2316 64.3425 11.1741C66.6042 11.1166 68.6167 20.5466 67.6584 27.8874C67.6237 28.0772 67.5336 28.2525 67.3994 28.3912C67.2652 28.5299 67.093 28.6258 66.9045 28.6668C66.7159 28.7078 66.5194 28.692 66.3398 28.6216C66.1602 28.5511 66.0054 28.429 65.8951 28.2708C63.9317 25.1163 61.0769 22.615 57.6917 21.0833V21.0833Z" fill="#FFA694"/>
<path d="M64.3234 15.4291C62.6751 15.4291 60.3175 18.7833 58.5734 21.505L57.6917 21.0833C57.5664 21.0363 57.4526 20.9631 57.3579 20.8686C57.2632 20.774 57.1898 20.6603 57.1426 20.5351C57.0954 20.4099 57.0755 20.276 57.0843 20.1425C57.093 20.0089 57.1302 19.8788 57.1934 19.7608C58.5351 17.3075 62.0809 11.2316 64.3234 11.1741C66.5659 11.1166 68.1567 18.8408 67.8501 25.6833C67.5434 20.2016 66.1442 15.3333 64.3234 15.4291Z" fill="#FF866E"/>
<path d="M57.6917 21.0833C57.5664 21.0363 57.4526 20.9631 57.3579 20.8685C57.2632 20.774 57.1898 20.6603 57.1426 20.535C57.0954 20.4098 57.0755 20.2759 57.0843 20.1424C57.093 20.0089 57.1302 19.8787 57.1934 19.7608C58.5351 17.3074 62.0809 11.2316 64.3425 11.1741C66.6042 11.1166 68.6167 20.5466 67.6584 27.8874C67.6237 28.0772 67.5336 28.2525 67.3994 28.3912C67.2652 28.5299 67.093 28.6258 66.9045 28.6668C66.7159 28.7078 66.5194 28.692 66.3398 28.6216C66.1602 28.5511 66.0054 28.429 65.8951 28.2708C63.9317 25.1163 61.0769 22.615 57.6917 21.0833V21.0833Z" stroke="#45413C" stroke-width="1.1875" stroke-linecap="round" stroke-linejoin="round"/>
</svg>
